<svg id="visual" viewBox="0 0 900 600" width="900" height="600" xmlns="http://www.w3.org/2000/svg" xmlns:xlink="http://www.w3.org/1999/xlink" version="1.1"><path d="M0 215L21.5 207.8C43 200.7 86 186.3 128.8 186.2C171.7 186 214.3 200 257.2 203.5C300 207 343 200 385.8 203.7C428.7 207.3 471.3 221.7 514.2 220.2C557 218.7 600 201.3 642.8 195.5C685.7 189.7 728.3 195.3 771.2 193.8C814 192.3 857 183.7 878.5 179.3L900 175L900 0L878.5 0C857 0 814 0 771.2 0C728.3 0 685.7 0 642.8 0C600 0 557 0 514.2 0C471.3 0 428.7 0 385.8 0C343 0 300 0 257.2 0C214.3 0 171.7 0 128.8 0C86 0 43 0 21.5 0L0 0Z" fill="#0f0122"></path><path d="M0 186L21.5 175.3C43 164.7 86 143.3 128.8 132.5C171.7 121.7 214.3 121.3 257.2 128.2C300 135 343 149 385.8 158.7C428.7 168.3 471.3 173.7 514.2 179.5C557 185.3 600 191.7 642.8 188.7C685.7 185.7 728.3 173.3 771.2 169C814 164.7 857 168.3 878.5 170.2L900 172L900 0L878.5 0C857 0 814 0 771.2 0C728.3 0 685.7 0 642.8 0C600 0 557 0 514.2 0C471.3 0 428.7 0 385.8 0C343 0 300 0 257.2 0C214.3 0 171.7 0 128.8 0C86 0 43 0 21.5 0L0 0Z" fill="#22183e"></path><path d="M0 127L21.5 130.2C43 133.3 86 139.7 128.8 138.7C171.7 137.7 214.3 129.3 257.2 122C300 114.7 343 108.3 385.8 103.7C428.7 99 471.3 96 514.2 103.3C557 110.7 600 128.3 642.8 133.7C685.7 139 728.3 132 771.2 130.5C814 129 857 133 878.5 135L900 137L900 0L878.5 0C857 0 814 0 771.2 0C728.3 0 685.7 0 642.8 0C600 0 557 0 514.2 0C471.3 0 428.7 0 385.8 0C343 0 300 0 257.2 0C214.3 0 171.7 0 128.8 0C86 0 43 0 21.5 0L0 0Z" fill="#39295d"></path><path d="M0 55L21.5 56.3C43 57.7 86 60.3 128.8 66.8C171.7 73.3 214.3 83.7 257.2 84C300 84.3 343 74.7 385.8 70C428.7 65.3 471.3 65.7 514.2 73.7C557 81.7 600 97.3 642.8 98.2C685.7 99 728.3 85 771.2 81.7C814 78.3 857 85.7 878.5 89.3L900 93L900 0L878.5 0C857 0 814 0 771.2 0C728.3 0 685.7 0 642.8 0C600 0 557 0 514.2 0C471.3 0 428.7 0 385.8 0C343 0 300 0 257.2 0C214.3 0 171.7 0 128.8 0C86 0 43 0 21.5 0L0 0Z" fill="#533b7d"></path><path d="M0 63L21.5 61.7C43 60.3 86 57.7 128.8 53.8C171.7 50 214.3 45 257.2 46.5C300 48 343 56 385.8 58.5C428.7 61 471.3 58 514.2 51.8C557 45.7 600 36.3 642.8 36.2C685.7 36 728.3 45 771.2 49.2C814 53.3 857 52.7 878.5 52.3L900 52L900 0L878.5 0C857 0 814 0 771.2 0C728.3 0 685.7 0 642.8 0C600 0 557 0 514.2 0C471.3 0 428.7 0 385.8 0C343 0 300 0 257.2 0C214.3 0 171.7 0 128.8 0C86 0 43 0 21.5 0L0 0Z" fill="#6f4d9e"></path></svg>